<?xml version="1.0" standalone="no"?>
<!DOCTYPE svg PUBLIC "-//W3C//DTD SVG 20010904//EN"
 "http://www.w3.org/TR/2001/REC-SVG-20010904/DTD/svg10.dtd">
<svg version="1.0" xmlns="http://www.w3.org/2000/svg"
 width="247.000000pt" height="317.000000pt" viewBox="0 0 247.000000 317.000000"
 preserveAspectRatio="xMidYMid meet">

<g transform="translate(0.000000,317.000000) scale(0.100000,-0.100000)"
fill="#000000" stroke="none">
<path d="M1205 2860 c-72 -13 -201 -81 -269 -142 -215 -192 -360 -546 -385
-938 -30 -491 113 -936 379 -1183 149 -138 322 -187 492 -138 94 27 159 65
239 139 166 154 285 389 349 689 27 127 38 441 21 593 -46 401 -226 753 -463
903 -109 70 -244 98 -363 77z m201 -44 c91 -24 174 -76 259 -161 348 -347 449
-1088 224 -1650 -134 -335 -351 -527 -596 -527 -428 0 -765 637 -704 1332 32
369 151 664 343 853 81 79 161 128 248 153 61 17 164 17 226 0z"/>
<path d="M1210 2610 c-16 -5 15 -8 85 -8 70 0 103 3 90 8 -25 11 -141 11 -175
0z"/>
<path d="M1080 2555 c-11 -13 15 -15 221 -15 208 1 232 2 215 15 -29 22 -418
22 -436 0z"/>
<path d="M1021 2498 c-11 -4 -22 -11 -25 -17 -5 -8 78 -9 273 -4 l281 6 0 -23
0 -23 -287 5 c-159 3 -294 3 -300 1 -48 -18 19 -23 282 -23 l295 0 0 -26 0
-27 -307 4 c-231 3 -307 1 -310 -8 -3 -9 67 -10 302 -6 l307 6 -4 -24 -3 -24
-307 2 c-254 1 -307 -1 -312 -12 -4 -12 42 -13 300 -8 l306 6 -4 -24 c-3 -23
-6 -24 -93 -27 -70 -2 -96 1 -122 15 -32 17 -34 17 -66 0 -29 -16 -50 -17
-180 -11 -137 7 -147 6 -147 -11 0 -17 10 -18 150 -11 l150 7 0 -26 0 -25
-150 6 c-140 7 -150 6 -150 -11 0 -17 10 -18 153 -11 102 4 163 3 182 -4 21
-8 36 -8 55 0 15 6 56 10 91 8 l64 -3 -50 -24 c-49 -24 -51 -24 -267 -17 -150
5 -218 4 -218 -3 0 -24 50 -119 85 -161 33 -40 98 -93 125 -102 10 -3 6 -31
-24 -193 -57 -303 -106 -576 -106 -592 0 -9 22 -13 79 -13 l79 0 6 103 c3 56
11 215 16 352 6 138 12 266 13 285 2 29 5 34 22 32 11 -2 21 -5 23 -6 1 -2 -2
-106 -8 -232 -5 -126 -13 -298 -17 -381 l-6 -153 74 0 75 0 -1 383 0 382 28 3
27 3 0 -385 0 -386 75 0 76 0 -5 58 c-8 83 -23 244 -47 512 l-20 235 23 15
c74 48 150 144 173 218 6 22 5 22 -89 22 -72 0 -96 3 -96 13 0 28 26 37 114
39 l91 2 -83 3 c-79 4 -83 5 -80 26 3 20 10 23 83 28 l80 5 -73 2 c-70 2 -73
3 -70 25 3 19 10 23 68 28 l65 6 -63 1 c-60 2 -63 3 -60 25 3 19 11 23 58 28
l55 6 -52 1 c-49 2 -53 4 -53 27 0 21 5 25 30 25 17 0 30 5 30 10 0 6 -13 10
-30 10 -23 0 -30 4 -30 20 0 12 7 21 18 22 9 1 -82 6 -203 10 -121 4 -248 9
-283 10 -35 2 -71 0 -81 -4z m462 -265 c4 -3 0 -15 -10 -25 -13 -14 -31 -18
-85 -18 -66 0 -68 1 -68 25 0 25 1 25 78 25 43 0 82 -3 85 -7z m-243 -134 c0
-21 -2 -21 -142 -14 -79 4 -147 10 -153 14 -11 6 100 16 223 19 67 2 72 1 72
-19z m420 17 c0 -2 -3 -11 -6 -20 -5 -13 -26 -16 -128 -16 l-121 0 25 20 c21
16 41 20 128 20 56 0 102 -2 102 -4z m-530 -55 c0 -22 -32 -32 -92 -29 -83 4
-77 21 9 29 38 3 71 6 76 7 4 1 7 -2 7 -7z m105 -16 c0 -26 -31 -31 -56 -9
-29 26 -23 36 19 32 29 -2 37 -7 37 -23z m178 19 c13 -13 -19 -44 -45 -44 -23
0 -28 4 -28 25 0 22 4 25 33 25 19 0 36 -3 40 -6z m210 -1 c4 -3 0 -15 -10
-25 -12 -13 -30 -18 -68 -18 -51 0 -65 9 -65 41 0 10 133 13 143 2z m-388 -74
c9 -28 -6 -42 -39 -33 -30 7 -30 8 -14 34 17 26 45 26 53 -1z m179 6 c25 -19
50 -19 66 0 14 17 90 21 90 5 0 -24 -79 -50 -155 -50 l-75 0 0 30 c0 26 4 30
28 30 15 0 36 -7 46 -15z m-306 -7 c20 -20 13 -28 -26 -28 -36 0 -62 14 -62
32 0 13 75 9 88 -4z m122 -63 c0 -11 -13 -15 -54 -15 -69 0 -83 18 -19 23 27
2 54 4 61 5 6 1 12 -5 12 -13z m170 -5 c-6 -12 -21 -20 -35 -20 -18 0 -25 5
-25 20 0 16 7 20 35 20 33 0 35 -2 25 -20z m-3 -44 c9 -9 0 -15 -27 -18 -16
-2 -25 3 -28 14 -2 12 3 16 23 14 14 -2 29 -6 32 -10z m-167 -6 c0 -5 -7 -10
-15 -10 -8 0 -15 5 -15 10 0 6 7 10 15 10 8 0 15 -4 15 -10z"/>
<path d="M970 975 c0 -9 9 -15 25 -15 23 0 24 -3 27 -72 2 -46 7 -73 16 -76 9
-3 12 16 12 72 0 72 1 75 25 78 52 6 28 23 -37 26 -56 2 -68 0 -68 -13z"/>
<path d="M1137 983 c-4 -3 -7 -41 -7 -84 0 -87 1 -89 81 -89 37 0 49 4 49 15
0 11 -12 15 -50 15 -47 0 -50 2 -50 25 0 23 4 25 45 25 33 0 45 4 45 15 0 11
-12 15 -45 15 -38 0 -45 3 -45 20 0 17 7 20 50 20 38 0 50 4 50 15 0 12 -13
15 -58 15 -32 0 -62 -3 -65 -7z"/>
<path d="M1316 977 c-11 -8 -17 -23 -14 -37 3 -22 12 -30 78 -60 25 -12 17
-35 -14 -38 -19 -2 -32 2 -38 12 -10 18 -38 22 -38 6 0 -20 41 -50 68 -50 38
0 72 26 72 55 0 26 -27 48 -72 59 -30 7 -37 30 -13 40 18 6 45 -2 45 -15 0 -5
7 -9 15 -9 22 0 19 27 -4 40 -27 14 -64 13 -85 -3z"/>
<path d="M1467 983 c-2 -4 -4 -42 -3 -83 1 -63 4 -75 19 -78 11 -2 17 3 17 16
0 29 10 52 24 52 6 0 21 -18 34 -40 12 -22 29 -40 37 -40 22 0 19 14 -15 67
l-30 47 32 33 c29 30 30 33 11 33 -13 0 -34 -16 -55 -42 l-33 -42 -5 39 c-5
36 -22 56 -33 38z"/>
<path d="M1160 735 c-11 -13 -10 -14 2 -10 11 5 15 -2 16 -26 1 -50 12 -47 12
4 0 49 -9 58 -30 32z"/>
<path d="M1224 736 c-7 -19 12 -46 33 -46 8 0 11 -5 8 -11 -4 -6 -13 -8 -21
-5 -8 3 -14 1 -14 -5 0 -6 10 -9 23 -7 19 3 22 9 22 43 0 34 -3 40 -23 43 -13
2 -25 -3 -28 -12z m39 -2 c8 -8 -3 -34 -14 -34 -5 0 -9 9 -9 20 0 19 11 26 23
14z"/>
<path d="M1307 731 c-3 -15 1 -21 17 -23 31 -4 27 -34 -4 -30 -18 2 -22 0 -13
-9 17 -17 48 -6 51 19 3 17 -2 25 -17 29 -28 7 -27 21 2 26 20 4 19 4 -4 6
-19 1 -28 -5 -32 -18z"/>
<path d="M1386 741 c-4 -5 3 -7 14 -4 22 6 28 -12 8 -21 -10 -5 -10 -7 0 -12
21 -10 14 -37 -8 -31 -11 3 -18 1 -14 -4 7 -11 41 -12 48 -1 3 5 3 25 -1 45
-4 27 -11 37 -24 37 -10 0 -20 -4 -23 -9z"/>
<path d="M2113 1973 c-40 -8 -26 -26 15 -19 20 3 45 6 55 6 9 0 17 5 17 10 0
10 -44 11 -87 3z"/>
<path d="M385 1960 c3 -5 21 -11 38 -11 l32 -2 -37 -10 c-40 -11 -52 -37 -19
-37 11 0 23 -4 26 -10 4 -6 -7 -10 -26 -10 -51 0 -22 -18 35 -22 59 -4 75 17
27 35 -39 14 -39 22 1 33 42 12 46 30 7 38 -48 9 -91 7 -84 -4z"/>
<path d="M2161 1931 c-10 -7 -11 -13 -2 -27 6 -11 11 -13 11 -6 0 25 30 12 30
-13 0 -18 -7 -28 -26 -35 -36 -14 -58 4 -50 42 6 29 -10 39 -20 13 -10 -24 5
-64 27 -76 26 -14 76 5 84 32 7 22 -3 61 -19 71 -14 10 -18 10 -35 -1z"/>
<path d="M370 1830 c0 -5 5 -10 10 -10 17 0 11 -52 -7 -66 -15 -11 -16 -13 -2
-14 29 0 109 32 109 44 0 7 -23 22 -50 34 -57 25 -60 26 -60 12z m62 -45 c0
-5 -5 -11 -11 -13 -6 -2 -11 4 -11 13 0 9 5 15 11 13 6 -2 11 -8 11 -13z"/>
<path d="M2158 1803 c-54 -5 -66 -23 -15 -23 41 0 77 10 77 21 0 5 -3 8 -7 7
-5 -1 -29 -3 -55 -5z"/>
<path d="M2210 1736 c0 -26 -16 -36 -61 -36 -17 0 -28 -3 -26 -7 3 -5 28 -6
56 -5 51 4 51 4 51 38 0 19 -4 34 -10 34 -5 0 -10 -11 -10 -24z"/>
<path d="M365 1700 c3 -5 15 -10 26 -10 26 0 24 -15 -8 -39 -30 -24 -23 -42
10 -22 15 10 22 10 25 2 2 -6 14 -11 27 -11 19 0 25 7 31 34 3 19 3 39 -1 45
-3 6 -31 11 -61 11 -34 0 -53 -4 -49 -10z m95 -35 c0 -25 -23 -35 -35 -15 -10
16 2 40 20 40 9 0 15 -9 15 -25z"/>
<path d="M2120 1640 c-6 -12 -10 -33 -8 -48 3 -25 6 -27 61 -30 35 -2 57 1 57
8 0 5 -9 10 -19 10 -34 0 -36 22 -6 46 16 13 26 26 22 30 -4 4 -15 0 -26 -10
-16 -15 -19 -15 -31 -1 -17 21 -37 19 -50 -5z m40 -36 c0 -26 -17 -33 -26 -9
-8 20 3 48 16 40 5 -3 10 -17 10 -31z"/>
<path d="M360 1564 c0 -46 17 -64 60 -64 43 0 60 18 60 64 0 25 -2 26 -60 26
-58 0 -60 -1 -60 -26z m98 -16 c-2 -19 -9 -23 -38 -23 -29 0 -36 4 -38 23 -3
20 1 22 38 22 37 0 41 -2 38 -22z"/>
<path d="M2110 1530 c0 -6 27 -9 63 -9 49 1 56 3 32 9 -45 11 -95 11 -95 0z"/>
<path d="M2110 1470 c-15 -28 -12 -57 6 -64 9 -3 36 -6 60 -6 l45 0 -3 43 -3
42 -48 1 c-37 2 -50 -2 -57 -16z m38 -22 c-5 -32 -28 -35 -28 -4 0 17 5 26 16
26 10 0 14 -7 12 -22z m52 -3 c0 -14 -6 -25 -13 -25 -20 0 -25 9 -20 31 8 28
33 24 33 -6z"/>
<path d="M413 1473 c-24 -2 -43 -9 -43 -14 0 -15 103 -7 108 9 2 6 -2 11 -10
10 -7 -1 -32 -3 -55 -5z"/>
<path d="M387 1423 c-14 -14 -6 -19 23 -15 38 5 38 -8 0 -37 -40 -29 -31 -40
27 -34 61 7 81 23 28 23 l-39 0 34 35 34 35 -50 0 c-28 0 -54 -3 -57 -7z"/>
<path d="M2100 1321 c24 -14 100 -24 100 -13 0 10 -48 22 -89 22 -19 -1 -22
-3 -11 -9z"/>
<path d="M2081 1273 c-5 -10 -11 -29 -12 -42 -4 -22 2 -26 46 -38 60 -15 65
-16 65 -4 0 5 -11 12 -25 15 -35 9 -31 24 10 42 19 8 35 19 35 24 0 13 -7 13
-31 -1 -16 -8 -25 -7 -38 5 -23 21 -38 20 -50 -1z m39 -28 c0 -18 -5 -25 -20
-25 -23 0 -24 4 -10 31 15 27 30 24 30 -6z"/>
<path d="M435 1261 c-20 -4 -30 -12 -29 -24 2 -55 5 -67 13 -67 5 0 8 15 7 33
-1 38 27 46 32 10 2 -13 7 -23 12 -23 5 0 7 14 3 31 -5 27 -3 31 13 27 11 -2
20 -13 22 -26 2 -12 7 -22 11 -22 5 0 6 15 2 33 -7 35 -27 41 -86 28z"/>
<path d="M490 1151 c-5 -11 -10 -29 -10 -40 0 -13 -6 -21 -16 -21 -12 0 -15 7
-12 30 3 17 1 30 -4 30 -14 0 -21 -28 -14 -56 5 -20 12 -25 34 -22 22 2 28 9
32 36 6 41 24 47 28 9 4 -30 22 -28 22 3 0 19 -25 50 -40 50 -5 0 -14 -9 -20
-19z"/>
<path d="M2090 1153 c-51 -8 -55 -12 -32 -36 11 -12 34 -30 51 -40 l30 -17 -6
35 c-5 31 -3 37 16 42 11 3 21 9 21 14 0 9 -33 10 -80 2z m25 -22 c7 -12 -12
-24 -25 -16 -11 7 -4 25 10 25 5 0 11 -4 15 -9z"/>
<path d="M503 1053 c-24 -8 -43 -19 -43 -24 0 -12 17 -11 41 1 26 14 25 -3 -3
-40 -12 -16 -19 -33 -15 -36 8 -8 107 25 107 37 0 12 -21 11 -40 0 -27 -18
-30 1 -5 31 14 16 23 34 19 39 -7 11 -9 11 -61 -8z"/>
<path d="M2112 1015 c-11 -24 -12 -24 -53 -10 -49 18 -49 18 -49 5 0 -11 37
-28 81 -37 22 -4 27 0 36 31 13 41 2 49 -15 11z"/>
<path d="M1975 940 c-6 -10 61 -90 77 -90 5 0 7 9 3 20 -8 24 11 60 30 60 8 0
15 5 15 10 0 13 -117 13 -125 0z m65 -25 c0 -8 -4 -15 -9 -15 -5 0 -14 7 -21
15 -10 13 -9 15 9 15 12 0 21 -6 21 -15z"/>
<path d="M500 921 c0 -5 10 -11 21 -14 19 -5 21 -11 16 -41 -3 -20 -2 -36 3
-36 10 0 80 80 80 92 0 4 -27 8 -60 8 -33 0 -60 -4 -60 -9z m84 -10 c3 -5 -1
-14 -8 -20 -16 -13 -32 2 -21 19 8 12 22 13 29 1z"/>
<path d="M605 839 c-22 -12 -44 -25 -49 -30 -16 -14 1 -21 23 -10 16 9 23 7
36 -11 17 -23 17 -23 10 10 -5 25 -3 32 9 32 8 0 20 -9 26 -21 7 -11 14 -18
17 -16 4 5 -24 67 -30 67 -1 0 -20 -9 -42 -21z"/>
<path d="M1926 829 c-10 -17 -16 -32 -14 -33 1 -2 24 -15 50 -30 l47 -27 15
30 c21 39 20 47 -4 71 -31 31 -72 26 -94 -11z m84 -4 c11 -14 6 -55 -8 -55 -4
0 -22 9 -40 20 -28 17 -32 23 -22 35 16 19 54 19 70 0z"/>
<path d="M1876 744 c-35 -34 -6 -94 45 -94 33 0 46 11 54 42 13 51 -61 90 -99
52z m72 -16 c17 -17 15 -47 -3 -54 -23 -9 -62 4 -69 22 -13 35 44 60 72 32z"/>
<path d="M671 700 c-42 -61 -35 -73 27 -55 68 21 70 19 27 -25 l-39 -40 32
-32 c18 -18 32 -28 32 -22 0 7 -7 17 -15 24 -8 7 -15 18 -15 26 0 24 20 26 40
2 21 -25 27 -9 8 22 -19 30 -1 36 27 10 35 -33 31 -12 -6 33 -32 39 -41 41
-93 21 -22 -8 -20 12 4 46 11 16 17 31 12 34 -4 2 -23 -17 -41 -44z"/>
<path d="M1770 605 l-24 -25 34 -35 c37 -38 78 -52 45 -15 -23 25 -14 35 30
32 19 -2 35 2 35 8 0 5 -11 10 -24 10 -18 0 -25 6 -28 23 -4 32 -39 33 -68 2z
m50 -9 c0 -7 -6 -19 -14 -25 -19 -16 -41 10 -24 27 16 16 38 15 38 -2z"/>
<path d="M844 526 c-3 -8 2 -26 11 -40 16 -24 14 -46 -5 -46 -5 0 -16 12 -24
28 -13 23 -15 24 -16 7 0 -27 18 -45 47 -45 31 0 38 21 18 59 -15 30 -15 31 5
31 11 0 20 -7 20 -15 0 -8 5 -15 10 -15 15 0 12 16 -6 34 -19 20 -53 21 -60 2z"/>
<path d="M1696 508 c3 -13 13 -39 22 -58 14 -35 15 -35 21 -10 5 17 18 29 41
37 l35 11 -48 21 c-64 28 -80 27 -71 -1z m52 -16 c2 -7 -3 -12 -12 -12 -9 0
-16 7 -16 16 0 17 22 14 28 -4z"/>
<path d="M925 439 c-45 -34 -58 -54 -28 -45 28 9 53 -3 53 -24 0 -33 19 -31
25 2 10 57 10 91 0 94 -5 2 -28 -10 -50 -27z m32 -36 c-3 -3 -11 -2 -17 2 -8
5 -7 11 2 22 12 15 13 14 16 -1 2 -10 1 -20 -1 -23z"/>
<path d="M1600 453 c0 -5 13 -27 28 -50 l28 -42 33 20 c35 21 37 38 3 20 -31
-16 -36 -14 -56 24 -17 32 -36 46 -36 28z"/>
<path d="M1533 425 c-18 -8 -33 -16 -33 -19 0 -3 10 -26 22 -51 24 -49 42 -60
32 -19 -6 24 -5 26 17 22 13 -3 33 -9 44 -13 19 -6 18 -5 -2 13 -15 13 -20 26
-16 42 4 13 0 25 -8 31 -18 11 -18 11 -56 -6z m45 -22 c-4 -22 -48 -31 -48
-10 0 19 10 27 32 27 13 0 18 -6 16 -17z"/>
<path d="M1010 390 c-11 -21 -20 -44 -20 -50 0 -19 17 -10 30 18 l13 27 9 -42
c5 -24 13 -43 18 -43 13 0 52 79 47 93 -2 7 -10 0 -17 -15 -18 -38 -27 -35
-35 12 -4 22 -11 40 -16 40 -5 0 -18 -18 -29 -40z"/>
<path d="M1126 344 c-19 -27 -36 -52 -36 -56 0 -11 18 -10 25 2 10 15 52 12
59 -5 3 -8 9 -15 14 -15 11 0 -5 101 -18 114 -4 4 -24 -14 -44 -40z m44 -9 c0
-8 -7 -15 -15 -15 -16 0 -20 12 -8 23 11 12 23 8 23 -8z"/>
<path d="M1430 368 c0 -13 -3 -40 -6 -60 -5 -25 -3 -38 5 -38 6 0 11 7 11 15
0 18 52 33 58 17 4 -14 22 -16 22 -4 0 16 -64 92 -77 92 -7 0 -13 -10 -13 -22z
m40 -34 c0 -16 -16 -19 -25 -4 -8 13 4 32 16 25 5 -4 9 -13 9 -21z"/>
<path d="M1351 353 c-18 -22 -24 -25 -31 -13 -6 8 -10 18 -10 23 0 4 -26 7
-57 6 -47 0 -53 -2 -34 -10 21 -8 23 -13 17 -54 -5 -27 -3 -45 2 -45 6 0 13
23 17 51 6 39 11 49 24 47 10 -2 17 -15 19 -33 5 -52 12 -76 22 -70 6 3 10 15
10 26 0 26 24 24 43 -3 8 -13 18 -20 22 -16 4 4 -3 20 -14 37 -18 25 -20 34
-11 52 18 32 5 34 -19 2z"/>
</g>
</svg>
